# xmcd
#
# Track frame offsets: 
#        150
#        11002
#        26480
#        45511
#        49223
#        67076
#        82603
#        100387
#        115078
#        132430
#        152401
#        169502
#        179526
#
# Disc length: 2738 seconds
#
# Revision: 0
# Processed by: cddbd v1.5PL3 Copyright (c) Steve Scherf et al.
# Submitted via: ExactAudioCopy v0.95a3
#
DISCID=9e0ab00d
DTITLE=Billy Gilman - Goshen, IN - July 24, 2001
DYEAR=2001
DGENRE=Country
TTITLE0=Little Bitty Pretty One
TTITLE1=She's Everything You Want
TTITLE2=Oklahoma
TTITLE3=She Was Kind Of Cute...
TTITLE4=Elisabeth
TTITLE5=I Wanna Get To Ya
TTITLE6=She's My Girl
TTITLE7=My First Kiss
TTITLE8=Don't Worry About Me
TTITLE9=There's A Hero
TTITLE10=You Don't, You Won't
TTITLE11=Billy Talks
TTITLE12=One Voice
EXTD=
EXTT0=
EXTT1=
EXTT2=
EXTT3=
EXTT4=
EXTT5=
EXTT6=
EXTT7=
EXTT8=
EXTT9=
EXTT10=
EXTT11=
EXTT12=
PLAYORDER=
